PathFileType	4	(X/Y/Z)	c:/Users/goper/Files/vsCode/490R/osim_files/A06/A06_SSWS_01.trc
DataRate	CameraRate	NumFrames	NumMarkers	Units                	OrigDataRate	OrigDataStartFrame	OrigNumFrames
120.00	120.00	8	36	mm	120.0	2395	3192
                Frame#	Time	LPSIS			LASIS			LTH1			LTH2			LTH3			LTH4			LLFE			LMFE			LSH1			LSH2			LSH3			LSH4			LLMAL			LMMAL			LCAL			LMTP5			LTOE			LMTP1			RPSIS			RASIS			RTH1			RTH2			RTH3			RTH4			RLFE			RMFE			RSH1			RSH2			RSH3			RSH4			RLMAL			RMMAL			RCAL			RMTP1			RTOE			RMTP5		
		X1	Y1	Z1	X2	Y2	Z2	X3	Y3	Z3	X4	Y4	Z4	X5	Y5	Z5	X6	Y6	Z6	X7	Y7	Z7	X8	Y8	Z8	X9	Y9	Z9	X10	Y10	Z10	X11	Y11	Z11	X12	Y12	Z12	X13	Y13	Z13	X14	Y14	Z14	X15	Y15	Z15	X16	Y16	Z16	X17	Y17	Z17	X18	Y18	Z18	X19	Y19	Z19	X20	Y20	Z20	X21	Y21	Z21	X22	Y22	Z22	X23	Y23	Z23	X24	Y24	Z24	X25	Y25	Z25	X26	Y26	Z26	X27	Y27	Z27	X28	Y28	Z28	X29	Y29	Z29	X30	Y30	Z30	X31	Y31	Z31	X32	Y32	Z32	X33	Y33	Z33	X34	Y34	Z34	X35	Y35	Z35	X36	Y36	Z36

2395	19.95000	0.00000	0.00000	0.00000	0.00000	0.00000	0.00000	0.00000	0.00000	0.00000	0.00000	0.00000	0.00000	0.00000	0.00000	0.00000	0.00000	0.00000	0.00000	0.00000	0.00000	0.00000	0.00000	0.00000	0.00000	0.00000	0.00000	0.00000	0.00000	0.00000	0.00000	0.00000	0.00000	0.00000	0.00000	0.00000	0.00000	0.00000	0.00000	0.00000	0.00000	0.00000	0.00000	0.00000	0.00000	0.00000	0.00000	0.00000	0.00000	0.00000	0.00000	0.00000	0.00000	0.00000	0.00000	0.00000	0.00000	0.00000	0.00000	0.00000	0.00000	0.00000	0.00000	0.00000	0.00000	0.00000	0.00000	0.00000	0.00000	0.00000	0.00000	0.00000	0.00000	0.00000	0.00000	0.00000	0.00000	0.00000	0.00000	0.00000	0.00000	0.00000	0.00000	0.00000	0.00000	0.00000	0.00000	0.00000	0.00000	0.00000	0.00000	0.00000	0.00000	0.00000	0.00000	0.00000	0.00000	0.00000	0.00000	0.00000	0.00000	0.00000	0.00000	0.00000	0.00000	0.00000	0.00000	0.00000	0.00000
2396	19.95833	0.00000	0.00000	0.00000	0.00000	0.00000	0.00000	0.00000	0.00000	0.00000	0.00000	0.00000	0.00000	0.00000	0.00000	0.00000	0.00000	0.00000	0.00000	0.00000	0.00000	0.00000	0.00000	0.00000	0.00000	0.00000	0.00000	0.00000	0.00000	0.00000	0.00000	0.00000	0.00000	0.00000	0.00000	0.00000	0.00000	0.00000	0.00000	0.00000	0.00000	0.00000	0.00000	0.00000	0.00000	0.00000	0.00000	0.00000	0.00000	0.00000	0.00000	0.00000	0.00000	0.00000	0.00000	0.00000	0.00000	0.00000	0.00000	0.00000	0.00000	0.00000	0.00000	0.00000	0.00000	0.00000	0.00000	0.00000	0.00000	0.00000	0.00000	0.00000	0.00000	0.00000	0.00000	0.00000	0.00000	0.00000	0.00000	0.00000	0.00000	0.00000	0.00000	0.00000	0.00000	0.00000	0.00000	0.00000	0.00000	0.00000	0.00000	0.00000	0.00000	0.00000	0.00000	0.00000	0.00000	0.00000	0.00000	0.00000	0.00000	0.00000	0.00000	0.00000	0.00000	0.00000	0.00000	0.00000	0.00000
2397	19.96667	0.00000	0.00000	0.00000	0.00000	0.00000	0.00000	0.00000	0.00000	0.00000	0.00000	0.00000	0.00000	0.00000	0.00000	0.00000	0.00000	0.00000	0.00000	0.00000	0.00000	0.00000	0.00000	0.00000	0.00000	0.00000	0.00000	0.00000	0.00000	0.00000	0.00000	0.00000	0.00000	0.00000	0.00000	0.00000	0.00000	0.00000	0.00000	0.00000	0.00000	0.00000	0.00000	0.00000	0.00000	0.00000	0.00000	0.00000	0.00000	0.00000	0.00000	0.00000	0.00000	0.00000	0.00000	0.00000	0.00000	0.00000	0.00000	0.00000	0.00000	0.00000	0.00000	0.00000	0.00000	0.00000	0.00000	0.00000	0.00000	0.00000	0.00000	0.00000	0.00000	0.00000	0.00000	0.00000	0.00000	0.00000	0.00000	0.00000	0.00000	0.00000	0.00000	0.00000	0.00000	0.00000	0.00000	0.00000	0.00000	0.00000	0.00000	0.00000	0.00000	0.00000	0.00000	0.00000	0.00000	0.00000	0.00000	0.00000	0.00000	0.00000	0.00000	0.00000	0.00000	0.00000	0.00000	0.00000	0.00000
2398	19.97500	0.00000	0.00000	0.00000	0.00000	0.00000	0.00000	0.00000	0.00000	0.00000	0.00000	0.00000	0.00000	0.00000	0.00000	0.00000	0.00000	0.00000	0.00000	0.00000	0.00000	0.00000	0.00000	0.00000	0.00000	0.00000	0.00000	0.00000	0.00000	0.00000	0.00000	0.00000	0.00000	0.00000	0.00000	0.00000	0.00000	0.00000	0.00000	0.00000	0.00000	0.00000	0.00000	0.00000	0.00000	0.00000	0.00000	0.00000	0.00000	0.00000	0.00000	0.00000	0.00000	0.00000	0.00000	0.00000	0.00000	0.00000	0.00000	0.00000	0.00000	0.00000	0.00000	0.00000	0.00000	0.00000	0.00000	0.00000	0.00000	0.00000	0.00000	0.00000	0.00000	0.00000	0.00000	0.00000	0.00000	0.00000	0.00000	0.00000	0.00000	0.00000	0.00000	0.00000	0.00000	0.00000	0.00000	0.00000	0.00000	0.00000	0.00000	0.00000	0.00000	0.00000	0.00000	0.00000	0.00000	0.00000	0.00000	0.00000	0.00000	0.00000	0.00000	0.00000	0.00000	0.00000	0.00000	0.00000	0.00000
2399	19.98333	0.00000	0.00000	0.00000	0.00000	0.00000	0.00000	0.00000	0.00000	0.00000	0.00000	0.00000	0.00000	0.00000	0.00000	0.00000	0.00000	0.00000	0.00000	0.00000	0.00000	0.00000	0.00000	0.00000	0.00000	0.00000	0.00000	0.00000	0.00000	0.00000	0.00000	0.00000	0.00000	0.00000	0.00000	0.00000	0.00000	0.00000	0.00000	0.00000	0.00000	0.00000	0.00000	0.00000	0.00000	0.00000	0.00000	0.00000	0.00000	0.00000	0.00000	0.00000	0.00000	0.00000	0.00000	0.00000	0.00000	0.00000	0.00000	0.00000	0.00000	0.00000	0.00000	0.00000	0.00000	0.00000	0.00000	0.00000	0.00000	0.00000	0.00000	0.00000	0.00000	0.00000	0.00000	0.00000	0.00000	0.00000	0.00000	0.00000	0.00000	0.00000	0.00000	0.00000	0.00000	0.00000	0.00000	0.00000	0.00000	0.00000	0.00000	0.00000	0.00000	0.00000	0.00000	0.00000	0.00000	0.00000	0.00000	0.00000	0.00000	0.00000	0.00000	0.00000	0.00000	0.00000	0.00000	0.00000	0.00000
2400	19.99167	1485.46362	996.25055	232.22516	1300.90662	951.35315	320.33585	1343.47107	579.57697	360.27780	1331.47534	539.62219	358.75342	1279.24805	588.73132	360.82645	1276.36462	545.68359	358.05222	1300.15771	469.89191	351.78076	1281.82556	462.21359	239.63692	1404.34534	446.34103	350.16019	1434.32520	411.60538	354.73517	1365.98279	402.41772	352.92734	1393.71228	374.74994	351.76898	1623.17798	249.29460	299.12985	1590.73096	228.94537	219.32903	1659.97327	286.98752	234.61656	1603.67139	125.49935	333.27032	1554.71118	101.12435	286.21301	1570.25964	112.31344	243.27545	1472.47034	1008.50781	101.93121	1292.38855	968.99341	61.03526	1398.32166	593.01227	22.11674	1391.13086	550.90741	22.68567	1335.61646	597.08954	32.00467	1336.82434	552.01471	29.66609	1362.38049	437.85922	52.25163	1365.07056	443.48096	141.49461	1377.90015	282.57281	68.83179	1374.60913	234.44926	72.70287	1318.29224	282.40744	79.86437	1321.25378	231.67221	80.04329	1367.33887	104.19635	67.82008	1357.20459	111.33080	150.79086	1425.28088	87.33530	115.28262	1223.14209	61.06114	148.02492	1206.32336	73.13493	107.29581	1233.94519	57.93985	59.06279
2401	20.00000	1476.61780	997.73834	231.76564	1292.65015	952.70099	320.42789	1328.51489	581.98938	360.82407	1313.83862	540.84436	359.44321	1261.51367	591.13959	361.19986	1260.57178	549.68927	358.43472	1282.39478	473.08475	352.28775	1263.78027	465.74008	240.14790	1386.32629	447.07571	350.56439	1416.40466	412.23114	354.69440	1340.80286	399.18448	350.72116	1373.87158	375.38995	351.93716	1598.67444	243.54214	299.23584	1567.84729	228.97208	217.32114	1638.77234	282.21558	234.56093	1576.41296	122.56479	332.36874	1526.71326	100.04454	284.99570	1542.68958	110.58550	242.37192	1463.53992	1009.78198	101.54005	1283.50000	969.54742	61.11897	1392.77087	593.99701	22.37514	1385.90198	551.71826	22.96876	0.00000	0.00000	0.00000	1329.79150	551.97095	30.98548	1359.04016	439.70160	51.46836	1360.26575	443.48788	141.86087	1375.45337	283.23727	68.98100	1372.65259	235.17015	72.83887	1314.62854	280.83459	82.13135	1319.39319	231.91588	80.15796	1367.10620	104.48199	67.97265	1355.78577	110.23731	151.66661	1425.15723	87.60440	115.42125	1222.58728	60.71813	148.34628	1206.84229	73.24355	106.89666	1233.81750	57.83878	59.12911
2402	20.00833	1468.00989	999.23279	231.46317	1286.22070	953.26941	320.05972	1313.80261	584.25885	361.36246	1297.47595	543.81165	359.50308	1251.08630	594.76886	361.63501	1244.41711	552.99408	359.19824	1265.31018	476.73016	352.35983	1246.08618	469.57526	240.64366	1368.55750	447.62585	351.61075	1397.99915	411.41565	354.51260	1321.76892	400.89740	351.16660	0.00000	0.00000	0.00000	1575.25281	238.83076	298.89023	1544.01147	225.36284	217.28093	1617.85535	276.62350	234.19489	1548.39636	118.52125	331.06546	1497.62073	97.38789	284.14249	1514.13049	108.29141	241.34006	1454.32300	1010.62860	101.16479	1274.28467	969.87103	61.20843	1387.00769	594.82166	22.67219	1380.79761	552.64307	23.16847	0.00000	0.00000	0.00000	1323.76611	551.36249	31.84991	1355.37952	440.32825	51.29258	1355.26074	443.47095	142.11111	1373.01953	283.94522	69.19296	1370.69763	235.84378	73.01756	1311.66980	280.09293	83.11172	1317.46765	232.01924	80.30967	1366.98804	104.89468	68.03321	1354.19592	109.00449	152.58809	1424.13208	86.82796	115.56126	1222.46057	60.60098	148.05736	1206.48645	73.28296	106.80226	1233.64307	57.71234	59.21222
